# xmcd
#
# Track frame offsets: 
#        150
#        14176
#        27768
#        41401
#        54097
#        67189
#        86325
#        103066
#        120734
#        137195
#        155365
#        170824
#        185804
#        205596
#        218251
#        238644
#        262638
#        275122
#        289866
#        305999
#
# Disc length: 4362 seconds
#
# Revision: 0
# Processed by: cddbd v1.5.2PL0 Copyright (c) Steve Scherf et al.
# Submitted via: ExactAudioCopy v0.99pb5
#
DISCID=26110814
DTITLE=Grant and Forsyth - Alle 40 Goed
DYEAR=2010
DGENRE=Country
TTITLE0=Only A Fool (Breaks His Own Heart)
TTITLE1=Turning Over New Leaves
TTITLE2=I'm Still Standing
TTITLE3=I Believe
TTITLE4=Deep Purple
TTITLE5=To Love Somebody
TTITLE6=Love On The Rocks
TTITLE7=I'm Amazed By You
TTITLE8=If I Can't Be With You
TTITLE9=A Love Worth Fighting For
TTITLE10=Why Not Me
TTITLE11=Walk Of Life
TTITLE12=Do That To Me One More Time
TTITLE13=Make Believe
TTITLE14=House For Sale
TTITLE15=When You Where Sweet Sixteen
TTITLE16=Before The Next Teardrops Falls
TTITLE17=Behind Closed Doors
TTITLE18=The Greatest Gift Of All
TTITLE19=Country Party (Medley)
EXTD=
EXTT0=
EXTT1=
EXTT2=
EXTT3=
EXTT4=
EXTT5=
EXTT6=
EXTT7=
EXTT8=
EXTT9=
EXTT10=
EXTT11=
EXTT12=
EXTT13=
EXTT14=
EXTT15=
EXTT16=
EXTT17=
EXTT18=
EXTT19=
PLAYORDER=
